<svg xmlns="http://www.w3.org/2000/svg" viewBox="0 0 717 259"><style><![CDATA[.F,.J{fill:#fff}.G,.H{opacity:0.6}]]></style><defs><filter id="A" filterUnits="userSpaceOnUse" color-interpolation-filters="sRGB"><feColorMatrix values="-1 0 0 0 1 0 -1 0 0 1 0 0 -1 0 1 0 0 0 1 0"/></filter><mask id="B" x="-27.93" y="-101.23" width="814.57" height="542.9" maskUnits="userSpaceOnUse"><path d="M-27.93-101.23v542.9h814.57v-542.9zM271.33 173.9H135.75v-52.47H176V72.35a40.92 40.92 0 0 1-4.7 3.28 98.24 98.24 0 0 1-12.3 6.24 93.55 93.55 0 0 1-13.79 4.64 53.26 53.26 0 0 1-12.71 1.76h-2.14v-53.6h2.14c2.35 0 5.8-.94 10.23-2.8a123.26 123.26 0 0 0 13.94-7 100.43 100.43 0 0 0 12.63-8.6c3.62-2.92 6-5.4 6.95-7.38l.6-1.18h58.47v113.7h36zm149.06-50a86.63 86.63 0 0 1-16.15 27.91 73.73 73.73 0 0 1-24.53 18.39 75.47 75.47 0 0 1-61.64 0 73.73 73.73 0 0 1-24.53-18.39 86.32 86.32 0 0 1-16.14-27.91 103.3 103.3 0 0 1-5.8-35.17 103.34 103.34 0 0 1 5.8-35.17 86.27 86.27 0 0 1 16.14-27.9 75.37 75.37 0 0 1 24.52-18.57 74 74 0 0 1 61.67 0 75.44 75.44 0 0 1 24.51 18.53 86.38 86.38 0 0 1 16.14 27.9 103.47 103.47 0 0 1 5.8 35.17 103.71 103.71 0 0 1-5.79 35.17zm159.78 0A86.79 86.79 0 0 1 564 151.77a73.73 73.73 0 0 1-24.53 18.39 75.47 75.47 0 0 1-61.64 0 73.63 73.63 0 0 1-24.53-18.39 86.32 86.32 0 0 1-16.14-27.91 103.3 103.3 0 0 1-5.8-35.17 103.34 103.34 0 0 1 5.8-35.17 86.27 86.27 0 0 1 16.14-27.9 75.23 75.23 0 0 1 24.54-18.53 74 74 0 0 1 61.67 0A75.37 75.37 0 0 1 564 25.62a86.74 86.74 0 0 1 16.14 27.9A103.47 103.47 0 0 1 586 88.69a103.43 103.43 0 0 1-5.83 35.17zM348.9 54c-5.66 0-10.1 3-13.6 9.12-3.67 6.45-5.54 15.06-5.54 25.6s1.86 19.1 5.53 25.44c3.5 6.06 8 9 13.6 9 5.28 0 9.54-2.94 13-9 3.67-6.36 5.53-14.92 5.53-25.45s-1.86-19.14-5.53-25.6c-3.46-6.1-7.73-9.1-13-9.1zm159.78 0c-5.66 0-10.1 3-13.6 9.12-3.68 6.45-5.54 15.06-5.54 25.6s1.86 19.1 5.53 25.44c3.5 6.06 7.95 9 13.6 9 5.27 0 9.54-2.94 13-9 3.67-6.36 5.53-14.92 5.53-25.45s-1.86-19.14-5.54-25.6c-3.46-6.1-7.67-9.1-13-9.1z" filter="url(#A)"/></mask><linearGradient id="C" x1="423.52" y1="252.83" x2="423.52" y2="2.99" gradientUnits="userSpaceOnUse"><stop offset="0" stop-opacity="0"/><stop offset="1"/></linearGradient></defs><path d="M0 0h717v259H0z" fill="#9e1818" opacity="0"/><path d="M573.5 39a84.16 84.16 0 0 0-5.46-8.37l-.18-.27-3.83-4.77a75.37 75.37 0 0 0-24.53-18.5 74 74 0 0 0-61.67 0 75.23 75.23 0 0 0-24.51 18.53 86.27 86.27 0 0 0-16.14 27.9 94.2 94.2 0 0 0-3.74 13.58L414 39.53a81.72 81.72 0 0 0-9.77-13.91 75.44 75.44 0 0 0-24.5-18.53 74 74 0 0 0-61.67 0 75.37 75.37 0 0 0-24.52 18.53 86.27 86.27 0 0 0-16.14 27.9 93.91 93.91 0 0 0-3.92 14.59L235.3 8.44v-.7h-58.47l-.6 1.18c-1 2-3.33 4.46-6.95 7.38a100.43 100.43 0 0 1-12.63 8.6 123.26 123.26 0 0 1-13.94 7c-4.44 1.87-7.88 2.8-10.23 2.8h-2.14v53.23l-.33.35 23 33.15h-17.3v52.47h.4l-.15.6 56.6 84.5H717z" fill="url(#C)" mask="url(#B)"/><path class="F" d="M493.22 62q5.8-10.22 15.46-10.2 9.07 0 14.9 10.2 5.5 9.7 5.8 25h54.46a100 100 0 0 0-5.66-32.8A84.06 84.06 0 0 0 562.42 27 73 73 0 0 0 538.6 9a71.91 71.91 0 0 0-59.84 0 72.9 72.9 0 0 0-23.83 18l-1.62 1.95L491 66.67a35.92 35.92 0 0 1 2.22-4.67z" opacity=".3"/><path class="G" d="M583.82 87h-54.46v1.65q0 16.45-5.8 26.5-5.8 10.06-14.9 10.07-9.65 0-15.46-10.07a37.08 37.08 0 0 1-3.07-6.93l-38.3 38.3 3.1 3.8a71 71 0 0 0 23.83 17.86 73.35 73.35 0 0 0 59.84 0 71.07 71.07 0 0 0 23.82-17.86 84 84 0 0 0 15.74-27.22 100.93 100.93 0 0 0 5.68-34.45V87z" fill="#d81c1c"/><path class="H" d="M487.4 88.7q0-12.94 3.6-22L453.3 29a84.78 84.78 0 0 0-14.12 25.27 101 101 0 0 0-5.67 34.45 100.93 100.93 0 0 0 5.67 34.45 85.6 85.6 0 0 0 12.65 23.43l38.3-38.3a62.44 62.44 0 0 1-2.74-19.61z" fill="#1686dc"/><path class="J" d="M508.68 177.1a72.93 72.93 0 0 1-31-6.61A74 74 0 0 1 453.06 152a87 87 0 0 1-16.22-28A103.86 103.86 0 0 1 431 88.69a103.8 103.8 0 0 1 5.82-35.29 86.74 86.74 0 0 1 16.22-28 75.57 75.57 0 0 1 24.65-18.64 74.41 74.41 0 0 1 62 0 75.67 75.67 0 0 1 24.61 18.62 86.91 86.91 0 0 1 16.21 28 103.93 103.93 0 0 1 5.82 35.29 104 104 0 0 1-5.82 35.3 86.94 86.94 0 0 1-16.21 28 74.08 74.08 0 0 1-24.65 18.48 73 73 0 0 1-30.97 6.65zm0-172.1a66.9 66.9 0 0 0-28.85 6.28 70.76 70.76 0 0 0-23 17.4 82 82 0 0 0-15.27 26.42A98.93 98.93 0 0 0 436 88.69a98.93 98.93 0 0 0 5.52 33.6 82.1 82.1 0 0 0 15.27 26.43 69.19 69.19 0 0 0 23 17.24 70.84 70.84 0 0 0 57.74 0 69.19 69.19 0 0 0 23-17.24 82.08 82.08 0 0 0 15.26-26.43 98.81 98.81 0 0 0 5.53-33.6 98.81 98.81 0 0 0-5.53-33.6 81.76 81.76 0 0 0-15.27-26.42 70.83 70.83 0 0 0-23-17.4A66.93 66.93 0 0 0 508.68 5zm0 122.77c-7.36 0-13.3-3.8-17.62-11.3-4.08-7.06-6.15-16.4-6.15-27.76s2.1-20.7 6.14-27.9c4.33-7.6 10.26-11.46 17.63-11.46 7 0 12.72 3.85 17.06 11.46 4.07 7.16 6.14 16.55 6.14 27.9s-2.07 20.7-6.15 27.76c-4.34 7.55-10.07 11.3-17.05 11.3zm0-73.43c-5.52 0-9.86 2.92-13.3 8.94-3.64 6.4-5.5 14.95-5.5 25.42s1.85 19 5.48 25.26c3.43 5.94 7.78 8.82 13.3 8.82 5.14 0 9.3-2.88 12.72-8.82 3.64-6.3 5.48-14.8 5.48-25.26s-1.84-19-5.48-25.42c-3.4-6.02-7.6-8.95-12.72-8.95zm1 96.36a58 58 0 0 1-6.94-.41l.37-3a53.21 53.21 0 0 0 11.36.17l.3 3-5.1.24zm16.86-3l-1.1-2.8a39.73 39.73 0 0 0 9.8-5.55l1.83 2.38a42.88 42.88 0 0 1-10.54 5.95zm-35.54-.37a42.77 42.77 0 0 1-10.49-6l1.83-2.36a40.59 40.59 0 0 0 9.77 5.59zm54.62-14.07l-2.34-1.87a54.17 54.17 0 0 0 6.14-9.59l2.68 1.34a57.35 57.35 0 0 1-6.45 10.12zM472 132.8a56.85 56.85 0 0 1-6.37-10.19l2.7-1.3a53.76 53.76 0 0 0 6 9.64zm84.43-20.8l-2.9-.82a74.66 74.66 0 0 0 2.24-11.25l3 .36a78 78 0 0 1-2.35 11.71zm-95-.58a78.61 78.61 0 0 1-2.23-11.73l3-.34a75.13 75.13 0 0 0 2.14 11.28zm98-23h-3v-.2a96.48 96.48 0 0 0-.66-11.48l3-.36a98.44 98.44 0 0 1 .69 11.87zm-97.87-.6h-3a98.14 98.14 0 0 1 .73-11.87l3 .37a94.35 94.35 0 0 0-.7 11.45zm92-22.36a62.16 62.16 0 0 0-4-10.69l2.7-1.32a65.42 65.42 0 0 1 4.24 11.21zm-89-.47l-2.88-.82A64 64 0 0 1 466 53l2.68 1.33A63.16 63.16 0 0 0 464.55 65zm79-19.94l-.26-.33a48.76 48.76 0 0 0-7.7-7.73l1.86-2.34a51.2 51.2 0 0 1 8.12 8.19l.32.4zm-68.78-.3l-2.3-1.9A48.79 48.79 0 0 1 481 34.4l1.82 2.37a45.64 45.64 0 0 0-8 7.92zm51.14-13.5A41.05 41.05 0 0 0 515 28.52l.33-3A43.71 43.71 0 0 1 527 28.49zm-33.28 0l-1.08-2.8a46.41 46.41 0 0 1 11.73-2.86l.34 3a44.31 44.31 0 0 0-11.01 2.65zM350 150.7a57.87 57.87 0 0 1-6.93-.41l.37-3a53.63 53.63 0 0 0 6.56.4l4.8-.23.3 3-5.1.24zm16.87-3l-1.1-2.8a39.73 39.73 0 0 0 9.8-5.55l1.82 2.38a42.64 42.64 0 0 1-10.53 5.95zm-35.5-.36a42.83 42.83 0 0 1-10.5-6l1.83-2.33a40.46 40.46 0 0 0 9.78 5.59zm54.63-14.1l-2.34-1.87a54.17 54.17 0 0 0 6.14-9.59l2.68 1.34a57.35 57.35 0 0 1-6.48 10.12zm-73.63-.47a56.64 56.64 0 0 1-6.37-10.19l2.7-1.3a53.2 53.2 0 0 0 6 9.64zm84.4-20.78l-2.9-.82a75.67 75.67 0 0 0 2.24-11.25l3 .36a78 78 0 0 1-2.35 11.71zm-95-.58a78.37 78.37 0 0 1-2.23-11.73l3-.34a76.41 76.41 0 0 0 2.14 11.28zm98-23h-3v-.18a96.58 96.58 0 0 0-.66-11.5l3-.36a98.44 98.44 0 0 1 .69 11.87zm-97.87-.6h-3a100.22 100.22 0 0 1 .73-11.87l3 .37a94.35 94.35 0 0 0-.7 11.45zm92-22.36a62.16 62.16 0 0 0-4-10.69l2.7-1.32a64.6 64.6 0 0 1 4.24 11.21zm-89-.4l-2.9-.88A64.85 64.85 0 0 1 306.31 53l2.7 1.35A61.77 61.77 0 0 0 304.89 65zm79-19.95l-.3-.38a48.58 48.58 0 0 0-7.67-7.74l1.86-2.34a51.2 51.2 0 0 1 8.12 8.19l.32.4zm-68.7-.38l-2.4-1.8a49.12 49.12 0 0 1 8.58-8.49l1.82 2.37a46 46 0 0 0-8.02 7.87zm51.07-13.43a41 41 0 0 0-10.93-2.74l.33-3a43.71 43.71 0 0 1 11.73 2.95zm-33.27 0l-1.1-2.8a46.41 46.41 0 0 1 11.73-2.86l.34 3A44.12 44.12 0 0 0 333 31.25zm-61.3 142.96H135.4v-53.2h40.27v-48a40.5 40.5 0 0 1-4.15 2.84 97 97 0 0 1-12.37 6.26 92.7 92.7 0 0 1-13.84 4.66 53.61 53.61 0 0 1-12.8 1.78h-2.5V34.3h2.5c2.3 0 5.7-.94 10.1-2.78a122.55 122.55 0 0 0 13.9-7A100.56 100.56 0 0 0 169.08 16c4.45-3.58 6.18-5.92 6.84-7.25l.7-1.38h59.07v113.7h36zm-131.32-5H266.7v-43.2h-36V12.37h-51.1a34.9 34.9 0 0 1-7.38 7.52 106.27 106.27 0 0 1-13.22 9 128.26 128.26 0 0 1-14.46 7.23 42 42 0 0 1-9.54 3v44.43a54.17 54.17 0 0 0 9.1-1.53 89.29 89.29 0 0 0 13.1-4.41 94.26 94.26 0 0 0 11.73-5.94 25.59 25.59 0 0 0 7.24-6l4.5-6v66.4H140.4z"/><path class="J" d="M348.9 177.1a73 73 0 0 1-31-6.61A74 74 0 0 1 293.27 152a86.94 86.94 0 0 1-16.21-28 103.86 103.86 0 0 1-5.82-35.3 103.8 103.8 0 0 1 5.82-35.29 86.72 86.72 0 0 1 16.21-28A75.67 75.67 0 0 1 317.9 6.76a74.41 74.41 0 0 1 62 0 75.67 75.67 0 0 1 24.63 18.62 86.93 86.93 0 0 1 16.22 28 103.89 103.89 0 0 1 5.82 35.29 103.94 103.94 0 0 1-5.82 35.3 87.14 87.14 0 0 1-16.22 28 74 74 0 0 1-24.65 18.48 73 73 0 0 1-30.99 6.65zm0-172.1a66.9 66.9 0 0 0-28.9 6.27 70.87 70.87 0 0 0-23 17.4 81.74 81.74 0 0 0-15.26 26.42 98.68 98.68 0 0 0-5.53 33.6 98.68 98.68 0 0 0 5.53 33.6A81.9 81.9 0 0 0 297 148.72 69.19 69.19 0 0 0 320 166a70.84 70.84 0 0 0 57.74 0 69.19 69.19 0 0 0 23-17.24A82.1 82.1 0 0 0 416 122.29a99 99 0 0 0 5.52-33.6 99.05 99.05 0 0 0-5.52-33.6 82 82 0 0 0-15.27-26.42 70.87 70.87 0 0 0-23-17.4A66.9 66.9 0 0 0 348.89 5zm0 122.77c-7.36 0-13.3-3.8-17.62-11.3-4.08-7.06-6.15-16.4-6.15-27.76s2.07-20.7 6.14-27.9c4.34-7.6 10.27-11.46 17.63-11.46 7 0 12.72 3.85 17.06 11.46 4.08 7.16 6.14 16.55 6.14 27.9s-2.07 20.7-6.15 27.76c-4.33 7.55-10.07 11.3-17.05 11.3zm0-73.43c-5.5 0-9.86 2.92-13.3 8.94-3.64 6.4-5.48 14.95-5.48 25.42s1.84 19 5.48 25.26c3.42 5.94 7.77 8.82 13.3 8.82 5.14 0 9.3-2.88 12.73-8.82 3.63-6.3 5.48-14.8 5.48-25.26s-1.85-19-5.5-25.42c-3.43-6.02-7.6-8.95-12.72-8.95zM207.33 124.9h-3v-12h3zm0-24h-3V89h3zm0-24h-3V65h3zm0-24h-3V41h3zm0-24h-3v-6.45h3zm61.87 119.82h-11.45v-3h11.45zm-23.43 0h-12v-3h12zm-24 0h-12v-3h12zm-24 0h-12v-3h12zm-24 0h-12v-3h12zm-24 0h-12v-3h12zm-16.1-85.37l-.17-3a52.73 52.73 0 0 0 11.34-2.46l.9 2.85a54.34 54.34 0 0 1-12.08 2.61zm23.4-7.18l-1.33-2.68a85.41 85.41 0 0 0 10.16-5.94l1.7 2.45a88.65 88.65 0 0 1-10.52 6.17zm20.12-13.63l-2-2.24 2-1.86 2.06 2.18q-1 1-2.06 1.92zm201.65 153.1a7.62 7.62 0 0 1 .45-2.55 7.24 7.24 0 0 1 1.31-2.27 6.76 6.76 0 0 1 2.12-1.62 6.3 6.3 0 0 1 2.86-.63 5.85 5.85 0 0 1 3.24.86 5.27 5.27 0 0 1 2 2.23l-1.1.68a4.24 4.24 0 0 0-1.88-1.95 4.17 4.17 0 0 0-1.16-.43 5.31 5.31 0 0 0-1.17-.13 4.68 4.68 0 0 0-2.26.52 5.16 5.16 0 0 0-1.65 1.35 5.94 5.94 0 0 0-1 1.89 6.78 6.78 0 0 0-.34 2.13 6.41 6.41 0 0 0 1.53 4.16 5.26 5.26 0 0 0 1.68 1.32 4.55 4.55 0 0 0 2.11.49 5.28 5.28 0 0 0 1.22-.15 4.69 4.69 0 0 0 1.22-.48 4.8 4.8 0 0 0 1.09-.82 4.23 4.23 0 0 0 .84-1.19l1.16.6a4.41 4.41 0 0 1-1 1.41 6.06 6.06 0 0 1-1.38 1 6.93 6.93 0 0 1-3.27.86 5.61 5.61 0 0 1-2.68-.64 7.11 7.11 0 0 1-2.1-1.67 7.66 7.66 0 0 1-1.37-2.33 7.77 7.77 0 0 1-.47-2.64zm5-11.13l1.7 1.26 1.7-1.26.78.4-2 1.72h-1l-2-1.72zm19.68 17.08v1.24H394v-14.18h9.35v1.24h-8v5.1h6.94v1.18h-6.94v5.4zm11.12-10.3a4.36 4.36 0 0 0-1.59-1.09 5.87 5.87 0 0 0-2.28-.42 4.24 4.24 0 0 0-2.74.71 2.36 2.36 0 0 0-.86 1.92 2.15 2.15 0 0 0 .23 1 2 2 0 0 0 .71.71 5.11 5.11 0 0 0 1.23.52l1.77.44a18.61 18.61 0 0 1 2 .54 5.74 5.74 0 0 1 1.55.75 3.08 3.08 0 0 1 1 1.09 3.28 3.28 0 0 1 .34 1.59 3.61 3.61 0 0 1-.38 1.7 3.29 3.29 0 0 1-1.06 1.2 4.64 4.64 0 0 1-1.61.71 8.9 8.9 0 0 1-2.06.23 8.48 8.48 0 0 1-5.7-2.06l.7-1.14a5.81 5.81 0 0 0 .91.76 6.6 6.6 0 0 0 1.18.63 7.5 7.5 0 0 0 1.39.42 7.79 7.79 0 0 0 1.56.15 4.82 4.82 0 0 0 2.64-.61 2 2 0 0 0 1-1.85 2.06 2.06 0 0 0-.27-1.1 2.34 2.34 0 0 0-.81-.78 5.71 5.71 0 0 0-1.33-.57q-.8-.24-1.86-.48l-2-.54a5.37 5.37 0 0 1-1.42-.7 2.88 2.88 0 0 1-.87-1 3.28 3.28 0 0 1-.29-1.45 4.12 4.12 0 0 1 .37-1.75 3.5 3.5 0 0 1 1-1.27 5 5 0 0 1 1.6-.78 7.2 7.2 0 0 1 2-.27 6.83 6.83 0 0 1 2.52.43 6.66 6.66 0 0 1 2 1.21zm4.36 11.54v-14.16h1.4v8.23l7.8-8.25h1.54l-5.8 6.23 6.1 8h-1.54l-5.44-7.13-2.67 2.77v4.36zm22.85-1.23v1.24h-9.53v-14.18h9.35v1.24h-7.95v5.1h6.93v1.18h-6.93v5.4zm-4.45-14.88l-.9-.34 1.18-1.86h1.44zm18.78 1.94v14.18h-1.38v-6.63h-8.4v6.63H445v-14.18h1.4V195h8.4v-6.3zm9.82 14.28a6 6 0 0 1-2.71-.61 6.88 6.88 0 0 1-2.11-1.62 7.42 7.42 0 0 1-1.36-2.31 7.57 7.57 0 0 1-.48-2.65 7.49 7.49 0 0 1 1.92-5 6.75 6.75 0 0 1 2.12-1.59 6.15 6.15 0 0 1 5.34 0 6.93 6.93 0 0 1 2.1 1.64 7.63 7.63 0 0 1 1.35 2.31 7.5 7.5 0 0 1 .48 2.63 7.33 7.33 0 0 1-.51 2.71 7.5 7.5 0 0 1-1.4 2.29 6.61 6.61 0 0 1-2.11 1.58 6 6 0 0 1-2.63.62zm-5.26-7.2a6.74 6.74 0 0 0 .38 2.23 5.89 5.89 0 0 0 1.08 1.89 5.3 5.3 0 0 0 1.66 1.32 4.59 4.59 0 0 0 2.14.49 4.49 4.49 0 0 0 2.17-.52 5.12 5.12 0 0 0 1.66-1.36 6.51 6.51 0 0 0 1-6.28 6.11 6.11 0 0 0-1.09-1.89 5.27 5.27 0 0 0-1.66-1.3 4.49 4.49 0 0 0-2.11-.49 4.64 4.64 0 0 0-2.18.51 5.17 5.17 0 0 0-1.66 1.34 6.52 6.52 0 0 0-1.05 1.9 6.72 6.72 0 0 0-.39 2.16zm24.36-7.08h1.17l5.9 14.18h-1.48l-1.84-4.44h-6.37l-1.82 4.44h-1.5zm3.43 8.65l-2.86-7-2.9 7zm11.32 4.37a4.46 4.46 0 0 0 2.23-.51 4.06 4.06 0 0 0 1.42-1.34 5.47 5.47 0 0 0 .73-1.88 11 11 0 0 0 .21-2.14v-7.15h1.4v7.15a10.85 10.85 0 0 1-.32 2.72 6.29 6.29 0 0 1-1 2.27 5.1 5.1 0 0 1-1.84 1.56 6 6 0 0 1-2.78.58 6 6 0 0 1-2.83-.61 5.26 5.26 0 0 1-1.85-1.61 6.73 6.73 0 0 1-1-2.28 12 12 0 0 1-.29-2.63v-7.15h1.37v7.15a11.27 11.27 0 0 0 .22 2.18 5.56 5.56 0 0 0 .75 1.87 4 4 0 0 0 1.41 1.32 4.45 4.45 0 0 0 2.17.5zm19.9-11.78h-5.06v12.94h-1.4V189.9h-5v-1.24h11.5zm7.67 13.04a6 6 0 0 1-2.71-.61 6.88 6.88 0 0 1-2.11-1.62 7.39 7.39 0 0 1-1.35-2.31 7.57 7.57 0 0 1-.48-2.65 7.54 7.54 0 0 1 1.91-5 6.75 6.75 0 0 1 2.12-1.59 6.17 6.17 0 0 1 5.35 0 6.89 6.89 0 0 1 2.09 1.64 7.63 7.63 0 0 1 1.35 2.31 7.5 7.5 0 0 1 .48 2.63 7.54 7.54 0 0 1-1.91 5 6.68 6.68 0 0 1-2.1 1.58 6.07 6.07 0 0 1-2.64.62zm-5.26-7.2a6.74 6.74 0 0 0 .38 2.23 6.29 6.29 0 0 0 1.08 1.89 5.3 5.3 0 0 0 1.66 1.32 4.87 4.87 0 0 0 4.32 0 5.19 5.19 0 0 0 1.65-1.36 6 6 0 0 0 1-1.89 6.53 6.53 0 0 0 0-4.39 6.11 6.11 0 0 0-1.09-1.89 5.23 5.23 0 0 0-1.65-1.3 4.56 4.56 0 0 0-2.12-.49 4.64 4.64 0 0 0-2.18.51 5.28 5.28 0 0 0-1.66 1.34 6.52 6.52 0 0 0-1.05 1.9 6.72 6.72 0 0 0-.34 2.13zm27.6 7.1V191.2l-5.17 9h-.82l-5.17-9v11.65h-1.4v-14.18h1.44l5.53 9.7 5.57-9.7h1.42v14.18zm11.18.1a5.92 5.92 0 0 1-2.7-.61 6.76 6.76 0 0 1-2.11-1.62 7.23 7.23 0 0 1-1.36-2.31 7.57 7.57 0 0 1-.48-2.65 7.49 7.49 0 0 1 1.92-5 6.71 6.71 0 0 1 2.11-1.59 5.93 5.93 0 0 1 2.64-.59 5.85 5.85 0 0 1 2.71.63 6.93 6.93 0 0 1 2.1 1.64 7.63 7.63 0 0 1 1.35 2.31 7.5 7.5 0 0 1 .48 2.63 7.33 7.33 0 0 1-.51 2.71 7.5 7.5 0 0 1-1.4 2.29 6.84 6.84 0 0 1-2.11 1.58 6 6 0 0 1-2.64.58zm-5.25-7.2a6.49 6.49 0 0 0 .38 2.23 5.89 5.89 0 0 0 1.08 1.89 5.26 5.26 0 0 0 1.65 1.32 4.62 4.62 0 0 0 2.14.49 4.53 4.53 0 0 0 2.18-.52 5.23 5.23 0 0 0 1.66-1.36 6.46 6.46 0 0 0 1.05-1.89 6.72 6.72 0 0 0 .37-2.16 6.46 6.46 0 0 0-.39-2.23 6.31 6.31 0 0 0-1.09-1.89 5.38 5.38 0 0 0-1.66-1.3 4.56 4.56 0 0 0-2.12-.49 4.67 4.67 0 0 0-2.18.51 5.13 5.13 0 0 0-1.65 1.34 6.08 6.08 0 0 0-1.05 1.9 6.46 6.46 0 0 0-.37 2.16zm25.7 3.44a3.37 3.37 0 0 1-.32 1.47 3.66 3.66 0 0 1-.86 1.16 3.83 3.83 0 0 1-1.26.76 4.34 4.34 0 0 1-1.54.27h-6.7v-14.18h6.83a2.71 2.71 0 0 1 1.34.32 3.3 3.3 0 0 1 1 .83 3.72 3.72 0 0 1 .65 1.15 4 4 0 0 1 .23 1.31 3.72 3.72 0 0 1-.54 2 3.34 3.34 0 0 1-1.5 1.33 3.52 3.52 0 0 1 1.93 1.34 3.78 3.78 0 0 1 .73 2.24zm-9.27-9.3v5.23H577a2.13 2.13 0 0 0 1-.22 2.48 2.48 0 0 0 .77-.58 2.79 2.79 0 0 0 .5-.83 2.72 2.72 0 0 0 .18-1 3.12 3.12 0 0 0-.17-1 2.31 2.31 0 0 0-.48-.82 2.23 2.23 0 0 0-.73-.56 2 2 0 0 0-.92-.21zm7.87 9.06a2.85 2.85 0 0 0-.18-1 2.63 2.63 0 0 0-1.29-1.46 2 2 0 0 0-1-.23h-5.43v5.37h5.3a2.29 2.29 0 0 0 1-.22 2.68 2.68 0 0 0 .82-.59 2.64 2.64 0 0 0 .55-.86 2.67 2.67 0 0 0 .24-1.01zm4.55 3.9v-14.18h1.4v14.18zm5.46 0v-14.18h1.4v12.94h8.2v1.24zm12.14 0v-14.18h1.4v14.18zm13.74-11.54a4.32 4.32 0 0 0-1.6-1.09 5.78 5.78 0 0 0-2.27-.42 4.22 4.22 0 0 0-2.74.71 2.36 2.36 0 0 0-.86 1.92 2.15 2.15 0 0 0 .23 1 2 2 0 0 0 .71.71 5.11 5.11 0 0 0 1.23.52l1.76.44a18.82 18.82 0 0 1 2 .54 5.88 5.88 0 0 1 1.55.75 3.08 3.08 0 0 1 1 1.09 3.28 3.28 0 0 1 .34 1.59 3.61 3.61 0 0 1-.38 1.7 3.39 3.39 0 0 1-1.06 1.2 4.61 4.61 0 0 1-1.62.71 8.78 8.78 0 0 1-2.06.23 8.48 8.48 0 0 1-5.69-2.06l.7-1.14a5.39 5.39 0 0 0 .91.76 6.27 6.27 0 0 0 1.18.63 7.27 7.27 0 0 0 1.39.42 7.76 7.76 0 0 0 1.55.15 4.83 4.83 0 0 0 2.65-.61 2.31 2.31 0 0 0 .68-3 2.34 2.34 0 0 0-.81-.78 5.62 5.62 0 0 0-1.34-.57l-1.85-.48-2-.54a5.37 5.37 0 0 1-1.42-.7 2.69 2.69 0 0 1-.87-1 3.28 3.28 0 0 1-.29-1.45 4 4 0 0 1 .37-1.75 3.5 3.5 0 0 1 1-1.27 4.87 4.87 0 0 1 1.6-.78 7.17 7.17 0 0 1 2-.27 6.88 6.88 0 0 1 2.53.43 6.66 6.66 0 0 1 2 1.21zm16.9 11.54V191.2l-5.17 9h-.82l-5.18-9v11.65h-1.4v-14.18h1.43l5.54 9.7 5.57-9.7h1.42v14.18zm11.22-1.16a4.46 4.46 0 0 0 2.23-.51 4.06 4.06 0 0 0 1.42-1.34 5.27 5.27 0 0 0 .73-1.88 10.29 10.29 0 0 0 .21-2.14v-7.15h1.4v7.15a10.85 10.85 0 0 1-.32 2.72 6.44 6.44 0 0 1-1 2.27 5.22 5.22 0 0 1-1.85 1.56 6 6 0 0 1-2.78.58 6 6 0 0 1-2.83-.61 5.26 5.26 0 0 1-1.85-1.61 6.53 6.53 0 0 1-1-2.28 11.47 11.47 0 0 1-.3-2.63v-7.15h1.37v7.15a11.27 11.27 0 0 0 .22 2.18 5.56 5.56 0 0 0 .75 1.87 4.06 4.06 0 0 0 1.41 1.32 4.45 4.45 0 0 0 2.18.5zm-63-24.76V145h8.77v24.27h14.47v7.64zm49-7.64v7.64h-22.7V145h22.34v7.64h-13.58v4.5h11.6v7.1h-11.6v5zm29-16.63h-9.17v24.27h-8.76v-24.27h-9.22V145H659z"/></svg>