<svg xmlns="http://www.w3.org/2000/svg" viewBox="0 0 297 242"><style><![CDATA[.B,.C{opacity:0.6}.D,.E{fill:#fff}]]></style><defs><linearGradient id="A" x1="157.1" y1="36.03" x2="157.1" y2="232.05" gradientUnits="userSpaceOnUse"><stop offset="0"/><stop offset=".99" stop-opacity="0"/></linearGradient></defs><path d="M152 38a82.45 82.45 0 0 1-134.79 94.85L97 242h200z" fill="url(#A)"/><path class="B" d="M2.5 82.5a79.74 79.74 0 0 0 23 56.07L82.23 81.8 26.15 25.7A79.73 79.73 0 0 0 2.49 82.5z" fill="#1686dc"/><path class="C" d="M162.5 81.8H82.23l-56.8 56.78A80 80 0 0 0 162.51 82.5l-.02-.7z" fill="#d81c1c"/><path class="D" d="M82.5 2.5a79.75 79.75 0 0 0-56.35 23.22L82.23 81.8h80.26A80 80 0 0 0 82.5 2.49z" opacity=".3"/><path class="E" d="M82.5 165A82.5 82.5 0 1 1 165 82.5 82.59 82.59 0 0 1 82.5 165zm0-160A77.52 77.52 0 1 0 160 82.5 77.6 77.6 0 0 0 82.5 5zm36.66 108.2H44.53a9.47 9.47 0 0 1-9.46-9.46V61a9.47 9.47 0 0 1 9.46-9.46h74.63a9.47 9.47 0 0 1 9.46 9.46v42.8a9.48 9.48 0 0 1-9.46 9.41zM44.53 54.5a6.47 6.47 0 0 0-6.46 6.5v42.8a6.47 6.47 0 0 0 6.46 6.46h74.63a6.47 6.47 0 0 0 6.46-6.46V61a6.47 6.47 0 0 0-6.46-6.46zm15.92 29.34a7 7 0 1 1 7-7 7 7 0 0 1-7 7zm0-11.94a5 5 0 1 0 5 5 5 5 0 0 0-5-5zM50 94.3a1.09 1.09 0 0 1-.39-.08 1 1 0 0 1-.53-1.31c3.2-7.5 11.5-7.58 11.87-7.58a1 1 0 0 1 0 2c-.3 0-7.35.1-10 6.36a1 1 0 0 1-.95.61z"/><path class="E" d="M71.9 94.3a1 1 0 0 1-.92-.61c-2.7-6.3-9.98-6.37-9.98-6.37a1 1 0 1 1 0-2c.35 0 8.65.1 11.86 7.58a1 1 0 0 1-.52 1.31 1.14 1.14 0 0 1-.45.08zm32.83-5h-21.9a1 1 0 0 1 0-2h21.9a1 1 0 1 1 0 2zm9.95-6.95H82.84a1 1 0 0 1 0-2h31.84a1 1 0 0 1 0 2zm0-6.97H82.84a1 1 0 0 1 0-2h31.84a1 1 0 0 1 0 2z"/></svg>