<svg xmlns="http://www.w3.org/2000/svg" viewBox="0 0 297 242"><style><![CDATA[.B,.C{opacity:0.6}.D,.E{fill:#fff}]]></style><defs><linearGradient id="A" x1="157.1" y1="36.03" x2="157.1" y2="232.05" gradientUnits="userSpaceOnUse"><stop offset="0"/><stop offset=".99" stop-opacity="0"/></linearGradient></defs><path d="M152 38a82.45 82.45 0 0 1-134.79 94.85L97 242h200z" fill="url(#A)"/><path class="B" d="M2.5 82.5a79.74 79.74 0 0 0 23 56.07L82.23 81.8 26.15 25.7A79.73 79.73 0 0 0 2.49 82.5z" fill="#1686dc"/><path class="C" d="M162.5 81.8H82.23l-56.8 56.78A80 80 0 0 0 162.51 82.5l-.02-.7z" fill="#d81c1c"/><path class="D" d="M82.5 2.5a79.75 79.75 0 0 0-56.35 23.22L82.23 81.8h80.26A80 80 0 0 0 82.5 2.49z" opacity=".3"/><path class="E" d="M106 81.4h-6.14l-1.37-5.8H66.03l-1.33 5.8h-6.35v-5.8h-4.62v-2.98h7.6v5.8h.98l1.33-5.8h37.2l1.36 5.8h.8v-5.8h7.7v2.98H106v5.8zM53.73 67.46h56.97v2H53.73zm41.105 12.748l2.938-.558 7.828 41.233-2.938.558zM83.225 80l2.977-.124 1.714 41.234-2.977.124zm3.697-39.773l2.913-.675 5.523 23.828-2.913.675zm-5.194-.24l2.974-.183 1.47 23.825-2.974.184zm-5.323 80.885l1.65-41.27 2.98.12-1.65 41.27zm-17.655-.002l7.828-41.233 2.938.558-7.828 41.233z"/><path class="E" d="M68.992 63.375l5.523-23.828 2.913.675-5.523 23.828zm9.178.253l1.47-23.825 2.974.184-1.47 23.825zM82.5 165A82.5 82.5 0 1 1 165 82.5 82.59 82.59 0 0 1 82.5 165zm0-160A77.52 77.52 0 1 0 160 82.5 77.6 77.6 0 0 0 82.5 5z"/></svg>