<svg xmlns="http://www.w3.org/2000/svg" viewBox="0 0 297 242"><style><![CDATA[.A,.E{fill:#fff}.C,.D{opacity:0.6}]]></style><defs><linearGradient id="A" x1="157.1" y1="36.03" x2="157.1" y2="232.05" gradientUnits="userSpaceOnUse"><stop offset="0"/><stop offset=".99" stop-opacity="0"/></linearGradient></defs><path d="M152 38a82.45 82.45 0 0 1-134.79 94.85L97 242h200z" fill="url(#A)"/><path class="C" d="M2.5 82.5a79.74 79.74 0 0 0 23 56.07L82.23 81.8 26.15 25.7A79.73 79.73 0 0 0 2.49 82.5z" fill="#1686dc"/><path class="D" d="M162.5 81.8H82.23l-56.8 56.78A80 80 0 0 0 162.51 82.5l-.02-.7z" fill="#d81c1c"/><path class="E" d="M82.5 2.5a79.75 79.75 0 0 0-56.35 23.22L82.23 81.8h80.26A80 80 0 0 0 82.5 2.49z" opacity=".3"/><path class="A" d="M82.5 165A82.5 82.5 0 1 1 165 82.5 82.59 82.59 0 0 1 82.5 165zm0-160A77.52 77.52 0 1 0 160 82.5 77.6 77.6 0 0 0 82.5 5zm44.7 83.76a1.5 1.5 0 0 1-1.09-2.53 21.72 21.72 0 0 0 5-13.67 20 20 0 0 0-4.94-13.28 1.49 1.49 0 0 1 0-2.12 1.51 1.51 0 0 1 2.12 0 22.86 22.86 0 0 1 5.82 15.4 24.34 24.34 0 0 1-5.79 15.73 1.49 1.49 0 0 1-1.12.47zm-3.46-4.68a1.48 1.48 0 0 1-1-.36 1.49 1.49 0 0 1-.18-2.11 15.85 15.85 0 0 0 3.32-9.13 13.13 13.13 0 0 0-3.22-8.48 1.5 1.5 0 1 1 2.15-2.09 16.11 16.11 0 0 1 4.1 10.58 18.66 18.66 0 0 1-4 11.07 1.5 1.5 0 0 1-1.17.52zm-50.66 32.6c-2.9 0-10.84-.53-16.66-6-4.28-4-6.45-9.7-6.45-17 0-7.14 2.15-12.85 6.4-17C63.7 69.7 74.54 70 75 70h.18c.17 0 1.86.12 9.63-.7 8.25-.87 16.52-8.76 18.63-12.75 2.4-4.53 6.23-3.78 7.5-3.1a1.51 1.51 0 0 1 .8 1.33v40.38a1.5 1.5 0 0 1-2.81.73c-.06-.1-6.1-10.83-15.45-14.34a1.5 1.5 0 1 1 1.05-2.81c6.47 2.42 11.36 7.7 14.2 11.48V56c-.72 0-1.74.33-2.66 2.06-2.44 4.6-11.54 13.33-21 14.32a77.73 77.73 0 0 1-10.29.7c-.8 0-10.23 0-16.4 5.9-3.6 3.48-5.4 8.45-5.4 14.74s1.84 11.4 5.5 14.8c6.15 5.72 15.43 5.13 15.52 5.12h.1a23.42 23.42 0 0 0 9.77-2.57c6.28-3.33 9.47-9.28 9.47-17.7a1.5 1.5 0 0 1 3 0c0 7-2.07 12.7-6.15 16.75-6.3 6.3-15.17 6.5-16 6.52-.2 0-.58.02-1.13.02zm.58-11.4c-4 0-7.1-1.16-9.3-3.46a13.24 13.24 0 0 1-3.28-9 11.65 11.65 0 0 1 3.13-7.78c2.4-2.46 5.9-3.7 10.47-3.7 13.5 0 19.15 1.1 26.05 7.55.45.46 4.2 4.32 5 6.15a1 1 0 0 1-.5 1.32 1 1 0 0 1-1.32-.5c-.5-1.13-3.1-4-4.6-5.54-6.38-6-11.75-7-24.65-7-4 0-7 1-9 3.1a9.67 9.67 0 0 0-2.57 6.4c0 .12-.15 4.6 2.74 7.6 1.8 1.88 4.44 2.83 7.83 2.83a8.66 8.66 0 0 0 6.73-2.67c3.55-3.9 2.9-10.8 2.9-10.88a1 1 0 0 1 1.99-.2c0 .32.73 7.86-3.4 12.43a10.61 10.61 0 0 1-8.23 3.36zM37 86.42a1 1 0 0 1-1-1V68.2a1 1 0 0 1 1-1 9.39 9.39 0 0 1 5.21 2.31 8.08 8.08 0 0 0 3 .86h10.7a1 1 0 0 1 0 2H45c-.5-.06-3.1-.43-4.14-1.36A9.05 9.05 0 0 0 38 69.38v14.94a4.69 4.69 0 0 0 2.35-1c1.7-1.6 4.3-1.8 6.85-1.8a1 1 0 0 1 0 2c-2.15 0-4.3.15-5.48 1.27A7.75 7.75 0 0 1 37 86.42z"/></svg>