<svg xmlns="http://www.w3.org/2000/svg" xmlns:xlink="http://www.w3.org/1999/xlink" viewBox="0 0 423.389 85.065" width="424" height="86"><defs><path id="A" d="M353.4 308.6v-6.3l26.3-33.4h-25.6v-6.2H389v6.3l-26.1 33.3h26.6v6.3z"/></defs><clipPath id="B"><use xlink:href="#A"/></clipPath><g clip-path="url(#B)" transform="translate(-193.711 -244.448)" fill="#faffff"><defs><path id="C" d="M-60.1.9h932.7v571.6H-60.1z"/></defs><clipPath id="D"><use xlink:href="#C"/></clipPath><path d="M338.4 247.6h66.1v76h-66.1z" clip-path="url(#D)"/></g><defs><path id="E" d="M420.6 262.7c2.3 0 4.3.4 6.1 1.1 1.7.7 3.2 1.8 4.3 3 1.2 1.3 2 2.8 2.6 4.5s.9 3.6.9 5.5c0 2-.3 3.9-.9 5.7s-1.4 3.3-2.6 4.6-2.7 2.3-4.5 3.1-3.9 1.1-6.4 1.1h-12.3v17.2h-7.9v-45.9h20.7zm-12.8 6.2v16.8h10.9c2.7 0 4.7-.8 5.9-2.4s1.8-3.7 1.8-6.2c0-2.4-.6-4.3-1.7-5.8-1.2-1.5-3.1-2.3-5.9-2.3h-11z"/></defs><clipPath id="F"><use xlink:href="#E"/></clipPath><g clip-path="url(#F)" transform="translate(-193.711 -244.448)" fill="#faffff"><defs><path id="G" d="M-60.1.9h932.7v571.6H-60.1z"/></defs><clipPath id="H"><use xlink:href="#G"/></clipPath><path d="M384.8 247.6h64.7v76h-64.7z" clip-path="url(#H)"/></g><defs><path id="I" d="M470.3 308.6c0-4-.2-7.2-.7-9.7-.4-2.5-1-4.4-1.8-5.7-.8-1.4-1.8-2.3-2.9-2.8s-2.4-.7-3.7-.7h-10v18.9h-7.9v-45.9h21.1c2.4 0 4.5.3 6.2 1s3.1 1.5 4.3 2.7c1.1 1.1 1.9 2.4 2.5 3.9.5 1.5.8 3.1.8 4.8 0 3.3-.9 6-2.6 8-1.8 2.1-4.4 3.3-7.9 3.6 1.4.2 2.8.7 4.1 1.4s2.4 1.9 3.4 3.5 1.8 3.8 2.3 6.6c.6 2.8.9 6.3.9 10.5h-8.1zm-8.1-25c2.8 0 4.8-.7 5.9-2.1s1.7-3.2 1.7-5.5c0-2.1-.6-3.9-1.7-5.2s-3.1-2-5.9-2h-11.1v14.7h11.1z"/></defs><clipPath id="J"><use xlink:href="#I"/></clipPath><g clip-path="url(#J)" transform="translate(-193.711 -244.448)" fill="#faffff"><defs><path id="K" d="M-60.1.9h932.7v571.6H-60.1z"/></defs><clipPath id="L"><use xlink:href="#K"/></clipPath><path d="M428.2 247.6h65.1v76h-65.1z" clip-path="url(#L)"/></g><defs><path id="M" d="M513.8 262.7l15.9 45.9H521l-4.1-12.4h-18l-4.1 12.4h-8.3l15.9-45.9zm-6 5c-.2 1-.5 2.1-.9 3.4-.3 1.3-.7 2.4-1 3.3l-5.4 15.7H515l-5.3-15.7c-.4-1-.7-2.1-1-3.3-.4-1.2-.7-2.4-.9-3.4zm10.2-18.9l-9.8 9.2h-4.7l7.7-10z"/></defs><clipPath id="N"><use xlink:href="#M"/></clipPath><g clip-path="url(#N)" transform="translate(-193.711 -244.448)" fill="#faffff"><defs><path id="O" d="M-60.1.9h932.7v571.6H-60.1z"/></defs><clipPath id="P"><use xlink:href="#O"/></clipPath><path d="M471.3 233h73.4v90.6h-73.4z" clip-path="url(#P)"/></g><defs><path id="Q" d="M539.2 262.7l11.7 34.8.6 2.1c.2.7.3 1.5.5 2.2l1.1-4.3 11.7-34.8h8.4l-15.9 45.9h-10.9l-15.8-45.9z"/></defs><clipPath id="R"><use xlink:href="#Q"/></clipPath><g clip-path="url(#R)" transform="translate(-193.711 -244.448)" fill="#faffff"><defs><path id="S" d="M-60.1.9h932.7v571.6H-60.1z"/></defs><clipPath id="T"><use xlink:href="#S"/></clipPath><path d="M515.6 247.6h72.7v76h-72.7z" clip-path="url(#T)"/></g><defs><path id="U" d="M591.6 308.6v-20.2l-17.5-25.7h9.2l12.5 19 12.6-19h8.7l-17.6 25.7v20.2z"/></defs><clipPath id="V"><use xlink:href="#U"/></clipPath><g clip-path="url(#V)" transform="translate(-193.711 -244.448)" fill="#faffff"><defs><path id="W" d="M-60.1.9h932.7v571.6H-60.1z"/></defs><clipPath id="X"><use xlink:href="#W"/></clipPath><path d="M559 247.6h73.1v76H559z" clip-path="url(#X)"/></g><defs><path id="Y" d="M235.2 249.2l-7.1 1.3-4.6 1-4.3 1.1-4 1.4c-2.6 1-5 2.4-7.1 4.2-1.3 1.1-2.5 2.3-3.5 3.6l-1.9 3c-.5 1-.9 2.2-.9 3.4 0 3.4 2.1 6.3 4.6 8.4.8.7 1.7 1.3 2.6 1.9 2.6 1.8 5.4 3.4 8.3 4.8l9 4.1 8.8 3.3 2.6.8 8.1 2.7 5.1 1.9c1.7.8 3.5 1.6 5 2.7a9.17 9.17 0 0 1 2.5 2.7c.6 1.1 1 2.3 1.1 3.5 0 1.2-.3 2.4-.9 3.4-1.7 2.6-4.6 4.4-7.4 5.6-4.2 1.8-8.4 3.3-12.8 4.6-2.5.7-5 1.5-7.5 2.1l-7.6 2-7.6 1.8-4.4.9-2.6.6-5.4 1.2-6.2 1.4c-.6.1-1.2.3-1.8.4-.5.1-2.5.6-1.1.5 2.1-.1 7.6-.6 19.4-2.2l12.9-2c5.3-.9 10.7-1.9 15.9-3.2 1.5-.4 3-.7 4.5-1.2l2.9-.9c4.1-1.3 10.8-3.6 12.4-4.3 6-2.6 9.8-4.6 11.7-9.4.7-1.7 1-3.6.8-5.4-.2-1.7-.8-3.3-1.6-4.8-.8-1.4-2-2.5-3.1-3.6-2.2-2-4.7-3.6-7.3-5-.7-.4-1.5-.8-2.3-1.1-1-.4-1.9-.9-2.9-1.3-1.4-.6-2.7-1.1-4.1-1.5l-10.9-3.5c-2.1-.7-4.1-1.4-6.1-2.2-.8-.4-1.7-.7-2.5-1.1-1-.5-1.9-1-2.8-1.5-1.1-.7-3-1.9-2.5-3.5.4-1.1 1.6-1.6 2.6-2 .9-.4 1.9-.7 2.9-.9 3-.8 6.1-1.3 9.1-1.9l2.7-.6c2.4-.6 4.8-1 7-1.9 1.9-.8 4.4-2 5.1-4.1 1-3.1-.1-6.5-1.8-9.1-.6-.9-1.2-1.9-1.9-2.8-.9-1.3-1.9-2.4-2.8-3.6-.4-.5-1-.5-1.4-.4-.4.4-2 2.3-14.9 4.7"/></defs><clipPath id="Z"><use xlink:href="#Y"/></clipPath><g transform="translate(-193.711 -244.448)" fill="#faffff"><g clip-path="url(#Z)"><defs><path id="a" d="M-60.1.9h932.7v571.6H-60.1z"/></defs><clipPath id="b"><use xlink:href="#a"/></clipPath><path d="M178.7 229.5h111.2v115.1H178.7z" clip-path="url(#b)"/></g><defs><path id="c" d="M310 254.3h3v62.6h-3z"/></defs><clipPath id="d"><use xlink:href="#c"/></clipPath><g clip-path="url(#d)"><defs><path id="e" d="M-60.1.9h932.7v571.6H-60.1z"/></defs><clipPath id="f"><use xlink:href="#e"/></clipPath><path d="M295 239.3h33.1V332H295z" clip-path="url(#f)"/></g></g></svg>