<svg xmlns="http://www.w3.org/2000/svg" width="394" height="73" viewBox="0 0 104.092 19.169"><path d="M5.435.376L7.332 2.54a.43.43 0 0 0 .375.167h3.98c.168 0 .27-.043.375-.167L13.958.376c.166-.2.104-.376-.167-.376h-2.686c-.17 0-.274.062-.378.187l-.81 1.168h-.44L8.665.186C8.56.062 8.457 0 8.27 0H5.603c-.273 0-.33.187-.167.376M40.55 11.25v.21c0 7.27 1.19 7.7 9.92 7.7s9.918-.44 9.918-7.733v-.186c0-7.27-1.187-7.708-9.918-7.708s-9.92.44-9.92 7.708m-.883 7.23l-8.293-8.105 7.79-6.146c.23-.166.145-.375-.147-.375h-5.083c-.145 0-.25.04-.375.145L25.6 10.356v-6.19c0-.207-.104-.312-.313-.312h-3.875c-.21 0-.314.106-.314.312v14.376c0 .21.105.312.314.312h3.875c.21 0 .313-.103.313-.312v-3.624l2.354-1.856 5.708 5.627c.126.124.23.165.395.165h5.46c.27 0 .356-.186.15-.374M71.848 3.854h-8.312c-.207 0-.314.106-.314.312v14.376c0 .21.107.312.314.312h8.312c8.898 0 10.064-.438 10.064-7.44v-.124c0-7-1.166-7.437-10.064-7.437m32.2 14.626L96.86 4.084c-.062-.166-.188-.23-.354-.23h-6.374c-.17 0-.293.064-.356.23L82.588 18.48c-.105.23-.02.374.228.374h4.147c.165 0 .292-.062.354-.23l1.084-2.125h9.834l1.082 2.125c.064.167.188.23.356.23h4.146c.25 0 .333-.145.23-.374m-48.497-7.23v.21c0 4.2-.166 4.272-5.084 4.272s-5.085-.062-5.085-4.272v-.21c0-4.208.168-4.27 5.085-4.27s5.084.062 5.084 4.27m21.63 0v.21c0 3.854-.314 3.98-5.312 3.98h-4.125V7.27h4.125c4.998 0 5.312.126 5.312 3.98m19.47 2.106h-6.667L93.048 7.3h.542zM.5 18.877c2.21.102 5.81.205 7.893.205 9.085 0 10.17-.02 10.17-4.957 0-3.895-1.144-4.208-5.958-4.353L7.02 9.605c-2.56-.085-2.604-.354-2.604-1.5 0-1.187.312-1.187 6.458-1.187a521.11 521.11 0 0 1 6.835.104c.205 0 .313-.104.313-.313V4.166c0-.207-.107-.312-.294-.33-1.938-.107-5.104-.21-7.375-.21C1.436 3.624 0 3.792 0 8.395c0 3.94.873 4.46 6.58 4.648l5.124.166c2.397.083 2.44.375 2.44 1.27 0 1.23-.105 1.292-5.774 1.292-2.646 0-5.375-.103-7.853-.188-.21-.02-.312.085-.312.292v2.667c0 .21.104.312.292.335" fill="#fff"/></svg>